<svg width="1456" height="117" viewBox="0 0 1456 117" fill="none" xmlns="http://www.w3.org/2000/svg">
<g clip-path="url(#clip0_802_2150)">
<path d="M0 115.434V1.56543H90.0992V26.5312H33.8827V45.7558H85.4225V70.0256H33.8827V90.555H89.7175V115.521H0V115.434Z" fill="#FAFAFA"/>
<path d="M131.616 115.434L98.2104 29.9238H133.62L145.742 68.8948C147.555 74.6361 149.082 80.5513 150.514 86.6406C151.945 92.7298 153.282 99.2539 154.713 106.213H149.464C150.8 99.1669 152.136 92.6428 153.473 86.6406C154.809 80.6383 156.336 74.7231 158.054 68.8948L169.889 29.9238H204.821L171.225 115.434H131.616Z" fill="#FAFAFA"/>
<path d="M256.457 117C246.436 117 237.846 115.261 230.592 111.781C223.338 108.302 217.802 103.256 213.985 96.6451C210.167 90.0339 208.163 82.2049 208.163 72.9841C208.163 63.7633 210.071 56.4562 213.985 49.8451C217.898 43.2339 223.338 38.1016 230.496 34.4481C237.655 30.7945 245.958 28.9678 255.694 28.9678C262.757 28.9678 269.247 30.0116 274.973 32.0124C280.7 34.0131 285.568 36.9707 289.672 40.7113C293.776 44.4518 296.926 49.0622 299.025 54.5425C301.125 60.0228 302.27 66.025 302.27 72.8971V79.9432H218.566V63.1544H286.522L270.774 66.6339C270.774 63.1544 270.201 60.2838 269.056 57.8481C267.911 55.4124 266.288 53.6726 264.093 52.4548C261.898 51.2369 259.225 50.541 255.98 50.541C252.735 50.541 250.063 51.1499 247.867 52.4548C245.672 53.7596 244.05 55.4994 242.904 57.8481C241.759 60.1968 241.186 63.1544 241.186 66.6339V78.8994C241.186 82.6399 241.854 85.7715 243.191 88.2942C244.527 90.8168 246.34 92.6436 248.726 93.7745C251.112 94.9053 253.88 95.6012 257.125 95.6012C259.416 95.6012 261.516 95.3403 263.329 94.7313C265.143 94.1224 266.765 93.3395 268.197 92.2087C269.629 91.0778 270.583 89.773 271.251 88.2072L300.934 92.2087C299.407 97.341 296.639 101.69 292.631 105.518C288.622 109.345 283.659 112.129 277.55 114.217C271.442 116.305 264.475 117.261 256.457 117.261V117Z" fill="#FAFAFA"/>
<path d="M349.42 67.4169V115.435H315.728V30.0117H347.32L347.988 51.8459H346.938C349.038 45.4087 352.474 39.9284 357.342 35.492C362.209 31.0556 368.795 28.8809 377.385 28.8809C384.066 28.8809 389.793 30.2727 394.66 32.9693C399.528 35.666 403.346 39.4935 406.018 44.3649C408.69 49.2362 410.027 54.7166 410.027 60.9797V115.435H376.335V67.4169C376.335 63.1545 375.19 59.8489 372.803 57.4132C370.417 54.9775 367.172 53.7597 362.877 53.7597C360.109 53.7597 357.723 54.2816 355.719 55.4125C353.715 56.5433 352.092 58.0221 350.947 60.1099C349.801 62.1976 349.229 64.5463 349.229 67.4169H349.42Z" fill="#FAFAFA"/>
<path d="M482.088 30.0116V52.3678H420.336V30.0116H482.088ZM432.267 9.65625H465.958V88.0332C465.958 89.86 466.436 91.1648 467.485 92.0347C468.535 92.9046 470.158 93.3395 472.353 93.3395C473.403 93.3395 474.835 93.2525 476.744 92.9916C478.652 92.7306 479.989 92.5566 480.561 92.2956L484.57 114.217C480.752 115.174 477.03 115.87 473.689 116.131C470.349 116.392 467.104 116.653 464.049 116.653C453.551 116.653 445.629 114.478 440.284 110.041C434.939 105.605 432.267 99.1678 432.267 90.7299V9.65625Z" fill="#FAFAFA"/>
<path d="M580.396 116.826C569.515 116.826 560.066 115.347 551.954 112.476C543.841 109.606 537.637 104.995 533.151 98.9062C528.665 92.817 526.375 84.988 526.375 75.4192H558.635C558.826 78.8988 559.78 81.8564 561.498 84.2051C563.216 86.5538 565.602 88.3806 568.752 89.5984C571.901 90.8163 575.624 91.4252 579.919 91.4252C583.546 91.4252 586.6 90.9902 589.081 90.2073C591.563 89.4244 593.376 88.2936 594.617 86.8148C595.858 85.336 596.526 83.6832 596.526 81.7694C596.526 80.0296 595.953 78.5508 594.713 77.246C593.472 75.9412 591.563 74.7233 588.795 73.6795C586.027 72.6356 582.4 71.6787 577.724 70.8088L565.125 68.3731C554.149 66.1984 545.463 62.5449 539.069 57.4126C532.674 52.2802 529.524 45.1471 529.524 36.2743C529.524 29.0542 531.719 22.704 536.014 17.3107C540.309 11.9174 546.227 7.65494 553.863 4.61033C561.498 1.56572 570.183 0.0869141 580.11 0.0869141C590.036 0.0869141 599.008 1.65271 606.357 4.69732C613.706 7.74193 619.433 12.0914 623.346 17.6587C627.259 23.2259 629.359 29.7501 629.454 37.2311H596.908C596.621 33.4906 595.094 30.62 592.422 28.5323C589.75 26.4445 585.645 25.4007 580.11 25.4007C576.674 25.4007 573.81 25.7486 571.52 26.5315C569.229 27.3144 567.606 28.2713 566.557 29.6631C565.507 31.0549 564.934 32.5337 564.934 34.1865C564.934 36.0133 565.507 37.5791 566.652 38.8839C567.797 40.1888 569.611 41.4066 572.092 42.3635C574.574 43.3204 577.819 44.1903 581.732 44.9731L591.945 46.9739C598.817 48.2787 604.734 50.0185 609.697 52.2802C614.66 54.5419 618.669 57.0646 621.819 59.9352C624.968 62.8059 627.259 66.1984 628.786 69.852C630.313 73.5055 630.981 77.507 630.981 81.8564C630.981 89.3374 628.977 95.6876 624.873 100.907C620.769 106.126 615.042 110.128 607.502 112.824C599.962 115.521 590.895 116.913 580.301 116.913L580.396 116.826Z" fill="#FAFAFA"/>
<path d="M689.677 117.001C679.465 117.001 670.779 115.174 663.526 111.433C656.272 107.693 650.736 102.56 646.918 95.9493C643.101 89.3382 641.192 81.6832 641.192 72.8973C641.192 64.1114 643.101 56.4564 646.918 49.8452C650.736 43.2341 656.272 38.1018 663.526 34.3612C670.779 30.6207 679.56 28.7939 689.677 28.7939C699.794 28.7939 708.575 30.6207 715.734 34.3612C722.892 38.1018 728.428 43.2341 732.341 49.8452C736.254 56.4564 738.068 64.1114 738.068 72.8973C738.068 81.6832 736.159 89.3382 732.341 95.9493C728.523 102.56 722.987 107.693 715.734 111.433C708.48 115.174 699.794 117.001 689.677 117.001ZM689.677 94.0356C692.541 94.0356 695.118 93.1657 697.217 91.5129C699.317 89.8601 700.94 87.4244 702.085 84.2058C703.23 80.9873 703.803 77.2467 703.803 72.8103C703.803 68.3739 703.23 64.5464 702.085 61.4148C700.94 58.2832 699.317 55.9345 697.217 54.2817C695.118 52.6289 692.636 51.846 689.677 51.846C686.719 51.846 684.142 52.6289 682.042 54.2817C679.942 55.9345 678.319 58.2832 677.174 61.4148C676.029 64.5464 675.456 68.2869 675.456 72.8103C675.456 77.3337 676.029 81.0742 677.174 84.2058C678.319 87.3374 679.942 89.8601 682.042 91.5129C684.142 93.1657 686.719 94.0356 689.677 94.0356Z" fill="#FAFAFA"/>
<path d="M784.551 116.478C777.965 116.478 772.239 115.086 767.276 112.389C762.312 109.693 758.59 105.865 755.822 100.994C753.054 96.1223 751.814 90.642 751.814 84.3788V30.0107H785.505V78.0286C785.505 82.291 786.651 85.5966 789.037 88.0323C791.423 90.468 794.668 91.6858 798.963 91.6858C801.731 91.6858 804.117 91.1639 806.217 90.033C808.317 88.9022 809.844 87.3364 810.894 85.3357C811.943 83.3349 812.612 80.8992 812.612 78.1156V30.0107H846.303V115.521H814.711L814.043 93.6866H815.093C812.993 100.124 809.557 105.604 804.785 110.04C800.013 114.477 793.332 116.652 784.646 116.652L784.551 116.478Z" fill="#FAFAFA"/>
<path d="M918.268 30.0116V52.3678H856.516V30.0116H918.268ZM868.446 9.65625H902.138V88.0332C902.138 89.86 902.615 91.1648 903.665 92.0347C904.715 92.9046 906.338 93.3395 908.533 93.3395C909.583 93.3395 911.015 93.2525 912.923 92.9916C914.832 92.7306 916.073 92.5566 916.741 92.2956L920.75 114.217C916.932 115.174 913.21 115.87 909.869 116.131C906.529 116.392 903.284 116.653 900.229 116.653C889.73 116.653 881.809 114.478 876.464 110.041C871.119 105.605 868.446 99.1678 868.446 90.7299V9.65625Z" fill="#FAFAFA"/>
<path d="M966.659 67.416V115.434H932.968V1.56543H965.896V51.845H964.273C966.373 45.4078 969.809 39.9275 974.677 35.4911C979.544 31.0546 986.13 28.8799 994.72 28.8799C1001.4 28.8799 1007.13 30.2717 1012.09 32.9684C1017.05 35.6651 1020.78 39.4926 1023.45 44.3639C1026.12 49.2353 1027.46 54.7156 1027.46 60.9788V115.434H993.766V67.416C993.766 63.1535 992.62 59.848 990.234 57.4123C987.848 54.9766 984.603 53.7587 980.308 53.7587C977.54 53.7587 975.154 54.2807 973.15 55.4115C971.145 56.5424 969.523 58.0212 968.377 60.1089C967.232 62.1967 966.659 64.5454 966.659 67.416Z" fill="#FAFAFA"/>
<path d="M1062.77 115.434L1035.76 29.9238H1070.98L1076.32 56.7164C1077.56 62.8056 1078.9 69.3298 1080.43 76.1149C1081.95 82.9 1083.19 90.2941 1084.24 98.2971H1081.09C1082.33 90.3811 1083.86 82.987 1085.58 76.1149C1087.3 69.2428 1088.92 62.8056 1090.26 56.7164L1096.56 29.9238H1125.76L1131.68 56.7164C1133.02 62.8056 1134.54 69.3298 1136.36 76.1149C1138.17 82.9 1139.6 90.2941 1140.94 98.2971H1137.98C1139.03 90.3811 1140.17 82.987 1141.51 76.1149C1142.85 69.2428 1144.18 62.8056 1145.33 56.7164L1150.67 29.9238H1186.56L1159.17 115.434H1124.62L1115.74 87.3365C1114.88 84.6398 1114.02 81.3342 1113.16 77.3327C1112.3 73.3313 1111.45 69.4168 1110.68 65.3283C1109.92 61.2398 1109.06 57.7603 1108.2 54.8896H1113.55C1112.78 57.7603 1111.92 61.2398 1111.16 65.3283C1110.4 69.4168 1109.44 73.4183 1108.68 77.3327C1107.91 81.2472 1106.96 84.6398 1106.1 87.3365L1097.22 115.434H1062.67H1062.77Z" fill="#FAFAFA"/>
<path d="M1238.39 117C1228.37 117 1219.78 115.261 1212.52 111.781C1205.27 108.302 1199.73 103.256 1195.82 96.6451C1191.91 90.0339 1190 82.2049 1190 72.9841C1190 63.7633 1191.91 56.4562 1195.82 49.8451C1199.73 43.2339 1205.17 38.1016 1212.33 34.4481C1219.49 30.7945 1227.79 28.9678 1237.53 28.9678C1244.59 28.9678 1251.08 30.0116 1256.81 32.0124C1262.54 34.0131 1267.4 36.9707 1271.51 40.7113C1275.61 44.4518 1278.76 49.0622 1280.86 54.5425C1282.96 60.0228 1284.11 66.025 1284.11 72.8971V79.9432H1200.4V63.1544H1268.36L1252.61 66.6339C1252.61 63.1544 1252.04 60.2838 1250.89 57.8481C1249.75 55.4124 1248.12 53.6726 1245.93 52.4548C1243.73 51.2369 1241.06 50.541 1237.82 50.541C1234.57 50.541 1231.9 51.1499 1229.7 52.4548C1227.51 53.7596 1225.88 55.4994 1224.74 57.8481C1223.59 60.1968 1223.02 63.1544 1223.02 66.6339V78.8994C1223.02 82.6399 1223.69 85.7715 1225.03 88.2942C1226.36 90.8168 1228.18 92.6436 1230.56 93.7745C1232.95 94.9053 1235.72 95.6012 1238.96 95.6012C1241.25 95.6012 1243.35 95.3403 1245.26 94.7313C1247.17 94.1224 1248.7 93.3395 1250.03 92.2087C1251.37 91.0778 1252.42 89.773 1253.09 88.2072L1282.77 92.2087C1281.24 97.341 1278.47 101.69 1274.47 105.518C1270.46 109.345 1265.49 112.129 1259.39 114.217C1253.28 116.305 1246.31 117.261 1238.29 117.261L1238.39 117Z" fill="#FAFAFA"/>
<path d="M1339.46 117.001C1330.97 117.001 1323.43 115.87 1316.94 113.695C1310.45 111.52 1305.1 108.389 1301.09 104.3C1297.09 100.212 1294.51 95.4274 1293.46 89.7731L1324.67 85.6847C1325.81 89.0772 1327.63 91.5999 1330.11 93.4267C1332.59 95.2534 1336.22 96.1233 1340.99 96.1233C1344.33 96.1233 1346.91 95.6884 1348.72 94.7315C1350.53 93.7746 1351.49 92.4698 1351.49 90.73C1351.49 89.0772 1350.63 87.7724 1348.91 86.8155C1347.19 85.8586 1344.43 85.0757 1340.8 84.4668L1324.19 81.6832C1314.65 80.1174 1307.58 77.2467 1302.81 72.9843C1298.04 68.7218 1295.65 63.3285 1295.65 56.5434C1295.65 50.5412 1297.37 45.4958 1300.9 41.4073C1304.43 37.3189 1309.4 34.1003 1315.79 32.0125C1322.19 29.9248 1329.92 28.7939 1338.89 28.7939C1347.19 28.7939 1354.45 29.7508 1360.65 31.7516C1366.85 33.7523 1371.82 36.536 1375.64 40.1895C1379.45 43.843 1381.74 48.2794 1382.7 53.4988L1353.02 57.4133C1352.25 54.6296 1350.72 52.5419 1348.24 51.2371C1345.76 49.9322 1342.9 49.3233 1339.56 49.3233C1336.69 49.3233 1334.21 49.7583 1332.21 50.7151C1330.2 51.672 1329.15 52.9768 1329.15 54.8036C1329.15 56.1084 1329.73 57.2393 1330.97 58.3702C1332.21 59.501 1334.5 60.3709 1338.03 60.8928L1357.12 63.9374C1366.66 65.5032 1373.82 68.1129 1378.59 71.8534C1383.37 75.5939 1385.66 80.6393 1385.66 86.9895C1385.66 93.3397 1383.65 98.385 1379.64 102.821C1375.64 107.258 1370.2 110.737 1363.23 113.173C1356.26 115.609 1348.34 116.827 1339.37 116.827L1339.46 117.001Z" fill="#FAFAFA"/>
<path d="M1453.52 30.0116V52.3678H1391.77V30.0116H1453.52ZM1403.7 9.65625H1437.39V88.0332C1437.39 89.86 1437.87 91.1648 1438.92 92.0347C1439.97 92.9046 1441.59 93.3395 1443.78 93.3395C1444.83 93.3395 1446.27 93.2525 1448.17 92.9916C1450.08 92.7306 1451.32 92.5566 1451.99 92.2956L1456 114.217C1452.18 115.174 1448.46 115.87 1445.12 116.131C1441.78 116.392 1438.54 116.653 1435.48 116.653C1424.98 116.653 1417.06 114.478 1411.72 110.041C1406.37 105.605 1403.7 99.1678 1403.7 90.7299V9.65625Z" fill="#FAFAFA"/>
</g>
<defs>
<clipPath id="clip0_802_2150">
<rect width="1456" height="117" fill="white"/>
</clipPath>
</defs>
</svg>
